<?xml version="1.0" encoding="UTF-8" standalone="no"?>
<!-- Created with Inkscape (http://www.inkscape.org/) -->

<svg
   width="3000"
   height="3000"
   viewBox="0 0 793.74998 793.75"
   version="1.1"
   id="svg1"
   inkscape:version="1.4.3 (0d15f75042, 2025-12-25)"
   sodipodi:docname="dartplesis_logo.svg"
   xmlns:inkscape="http://www.inkscape.org/namespaces/inkscape"
   xmlns:sodipodi="http://sodipodi.sourceforge.net/DTD/sodipodi-0.dtd"
   xmlns="http://www.w3.org/2000/svg"
   xmlns:svg="http://www.w3.org/2000/svg">
  <sodipodi:namedview
     id="namedview1"
     pagecolor="#ffffff"
     bordercolor="#000000"
     borderopacity="0.25"
     inkscape:showpageshadow="2"
     inkscape:pageopacity="0.0"
     inkscape:pagecheckerboard="0"
     inkscape:deskcolor="#d1d1d1"
     inkscape:document-units="mm"
     inkscape:zoom="0.11313708"
     inkscape:cx="-2055.0291"
     inkscape:cy="2740.0388"
     inkscape:window-width="1920"
     inkscape:window-height="935"
     inkscape:window-x="0"
     inkscape:window-y="32"
     inkscape:window-maximized="1"
     inkscape:current-layer="layer1" />
  <defs
     id="defs1" />
  <g
     inkscape:label="Layer 1"
     inkscape:groupmode="layer"
     id="layer1">
    <path
       id="path1"
       d="m 462.77932,138.14425 c -16.46269,1.01508 -30.81456,10.92299 -43.45263,20.2584 -4.83849,3.60813 -9.47133,7.47963 -14.17389,11.26576 -9.26929,-1.48415 -18.23307,-4.58952 -27.60577,-5.43624 -3.44454,-0.49311 -7.66245,0.31993 -10.96147,1.29292 -8.14111,2.33926 -15.54981,6.54875 -23.13767,10.20858 -8.54526,-3.88475 -18.15848,-1.01508 -26.22506,2.66881 -8.63423,3.2882 -16.81867,9.30175 -26.48724,8.55966 -9.72511,-0.009 -19.39848,-2.21297 -28.12771,-6.49702 -10.55136,-4.36943 -21.99634,-9.50018 -33.64696,-6.79409 -12.13052,2.6688 -21.46592,13.47393 -23.5851,25.53949 -2.66761,11.91883 -1.86058,24.59898 1.97365,36.16542 3.89437,9.86581 10.65479,17.53307 18.18614,24.87199 -5.15361,5.07784 -10.25068,10.20859 -15.31046,15.38143 3.20401,1.25442 6.4032,2.50764 9.60241,3.75847 -7.14167,11.33551 -15.61596,22.41366 -18.81636,35.64825 -0.10229,3.15229 1.44806,6.06524 3.38802,8.44781 -1.78963,5.34605 -4.15776,12.1257 -0.0373,17.02072 1.7331,2.0013 4.34539,2.80954 6.75561,3.66947 0.76492,10.85203 0.45103,22.08051 3.27858,32.52001 1.58877,2.45714 4.44038,3.62255 6.72311,5.31838 -11.2898,9.00106 -24.61339,15.96353 -33.3234,27.80299 -4.23232,6.54873 -5.52884,14.59726 -10.74379,20.63844 -5.5156,8.86998 -8.0437,19.26738 -9.64572,29.63111 -11.28019,10.49003 -23.50449,20.34262 -32.3456,33.09251 -3.05006,5.52525 -6.44652,11.2802 -12.09804,14.48902 -17.21916,13.77461 -35.254964,26.58706 -51.753705,41.22641 L 32.327847,601.4597 c 20.510937,-7.76589 41.681029,-13.61104 62.479446,-20.52663 7.389437,-3.28818 13.008477,-9.08162 19.652237,-13.5629 14.00914,-10.27475 27.60093,-21.17848 42.32448,-30.4249 5.9474,-2.82876 12.4877,-4.20947 18.35571,-7.25353 3.40127,-1.60683 6.61972,-3.56123 9.71548,-5.69002 12.81124,14.82698 31.28003,24.56168 50.68209,27.04769 12.88702,1.48415 26.29119,-0.95856 37.4824,-7.6444 4.05913,-2.13723 7.76108,-5.16805 12.01746,-6.7977 9.20311,0.17798 18.40624,0.36559 27.60576,0.54482 1.95918,-2.66399 3.91359,-5.33762 5.8728,-8.00042 15.51254,8.64387 28.96842,20.36063 43.07618,31.02504 12.98082,11.96695 19.89158,28.74353 25.21956,45.20979 1.71026,4.88661 3.29783,9.8141 5.08267,14.67663 4.05072,-8.67271 8.10505,-17.26487 11.94769,-26.0362 8.15074,12.15335 17.669,24.20447 20.69983,38.85828 1.19307,8.50313 -1.53587,16.86556 -2.21783,25.27006 1.08125,6.62454 10.28437,9.36794 15.19864,5.0418 10.00652,-6.81217 19.70395,-14.05726 29.945,-20.517 20.45566,-13.33803 41.89272,-25.08731 62.59733,-38.0164 18.31844,-11.7829 35.47988,-25.38435 50.0206,-41.7147 5.10189,3.26053 11.83465,0.79858 15.21185,-3.77291 20.09003,-18.28476 33.72393,-42.96791 40.6864,-69.06188 0.99584,-2.14202 3.84266,-0.9766 4.34059,0.9778 4.43917,7.81761 9.04795,15.59794 13.54487,23.4011 21.88808,6.7977 43.25899,15.46561 65.70752,20.32817 10.10998,1.00545 19.76891,-5.10671 25.01632,-13.48718 9.1851,-11.7781 17.15781,-24.43542 25.84499,-36.5707 2.84202,-4.64129 3.23168,-10.32165 2.18413,-15.55945 -1.71509,-15.97798 -2.32123,-31.79237 -6.0749,-47.45044 -1.62003,-6.59684 -6.17829,-12.23394 -12.22911,-15.29241 -9.14179,-4.79278 -19.70756,-5.17285 -29.61186,-7.40869 -13.11672,-2.43427 -26.13004,-4.96598 -39.30811,-7.07073 -6.03278,3.37721 -11.9525,7.00939 -17.92395,10.51409 -7.99078,4.67012 -15.84205,9.66856 -24.01205,13.96222 -1.92555,0.83227 -4.60876,2.87088 -6.22882,0.46546 0.22489,-3.08615 2.82277,-5.38454 4.2275,-8.03409 3.83906,-5.4206 5.31838,-12.79201 5.56253,-19.55723 0.26822,-11.41732 -4.52337,-22.15629 -9.70102,-32.06901 3.90878,-5.18245 1.68135,-12.22913 -1.93998,-16.89924 -8.23133,-14.44211 -17.78323,-28.09524 -28.15178,-41.07125 4.88179,-2.40541 10.91455,-5.52886 11.53397,-11.59892 0.36683,-6.25288 -5.80186,-10.90855 -11.62778,-11.09257 -2.82757,-0.60135 -6.91075,-1.20271 -7.21143,-4.80122 0.0709,-2.21297 1.45647,-4.35499 0.76613,-6.67141 -0.54965,-4.19985 -4.16259,-7.17414 -8.15196,-7.99078 -6.63774,-1.92675 -13.61468,-2.73015 -20.14536,-4.72183 -10.29759,-2.65439 -20.40274,-6.30941 -29.64435,-11.62779 -2.09029,-1.93635 -1.01506,-4.81563 -1.04275,-7.23068 -0.79859,-5.12593 -5.84394,-8.56447 -10.84841,-8.5272 -11.49067,-1.52622 -22.74803,-4.4957 -33.70348,-8.25416 6.77486,-9.51825 11.20924,-21.20736 9.91272,-33.02757 -0.78416,-18.31723 -11.84426,-36.49497 -29.12357,-43.27341 -4.82405,-1.82812 -10.02095,-2.58461 -15.16494,-2.33085 z"
       style="display:inline;fill:#ffffff;fill-opacity:1;fill-rule:nonzero;stroke:none;stroke-width:1.20271" />
    <path
       id="path2"
       d="m 444.68216,380.51869 c -1.35303,0.44982 -18.49162,1.12695 -18.49162,1.12695 l -19.39365,19.61977 4.28523,11.27418 37.8853,-7.66605 z"
       style="display:inline;fill:#333333;fill-opacity:1;fill-rule:nonzero;stroke:none;stroke-width:1.20271" />
    <path
       id="path3"
       d="m 186.52338,458.39762 12.4348,6.69548 20.41356,20.73226 -50.39106,33.48339 -24.23815,9.25003 c 0,0 -48.793846,38.58526 -52.618463,39.54382 -3.828206,0.95855 -23.921833,6.38037 -23.921833,6.38037 l 15.630373,-20.73228 49.427673,-38.58526 15.31168,-17.22399 z"
       style="display:inline;fill:#f9f9f9;fill-opacity:1;fill-rule:nonzero;stroke:none;stroke-width:1.20271" />
    <path
       id="path4"
       d="m 449.6289,390.4687 3.18599,4.14332 -5.10189,2.23223 6.37917,6.69908 -3.5095,9.24642 27.74765,7.65764 2.86967,-24.55689 z"
       style="display:inline;fill:#1a1a1a;fill-opacity:1;fill-rule:nonzero;stroke:none;stroke-width:1.20271" />
    <path
       id="path5"
       d="m 623.28427,449.07304 3.72116,-13.98269 -17.91913,-4.75911 -5.74053,14.03318 z"
       style="display:inline;fill:#1a1a1a;fill-opacity:1;fill-rule:nonzero;stroke:none;stroke-width:1.20271" />
    <path
       id="path6"
       d="m 149.27194,497.30761 12.59955,13.39456 -91.05338,65.53795 11.003571,-20.41356 57.086499,-42.57344 z"
       style="display:inline;fill:#f9f9f9;fill-opacity:1;fill-rule:nonzero;stroke:none;stroke-width:1.20271" />
    <path
       id="path7"
       d="m 259.62035,317.27672 c 0.95374,0.15996 11.16233,5.10791 12.27605,7.4989 1.11851,2.39096 3.66945,6.69426 4.30807,7.49287 0.63384,0.79859 13.23462,5.7417 13.23462,5.7417 l -7.17897,7.0142 c 0,0 -1.27246,2.71091 -9.7251,-0.47989 -8.45145,-3.18475 -7.8128,-14.82696 -12.59477,-19.29503 -4.78797,-4.46325 -12.28084,-12.4348 -12.28084,-17.21797 0,-4.78315 11.96094,9.24522 11.96094,9.24522 z"
       style="display:inline;fill:#333333;fill-opacity:1;fill-rule:nonzero;stroke:none;stroke-width:1.20271" />
    <path
       id="path8"
       d="m 357.20925,319.3538 c 0,0 10.5237,7.0142 15.30566,7.0142 4.78315,0 18.97511,-9.88506 23.11966,-21.52606 4.14812,-11.64221 9.25483,-34.59709 15.11802,-36.85218 5.8632,-2.25507 -2.02897,-0.90203 -2.02897,-0.90203 0,0 -20.07078,8.34319 -23.00178,11.95131 -2.9322,3.60811 -2.25508,18.94263 -2.25508,18.94263 l -7.21624,14.65862 z"
       style="display:inline;fill:#333333;fill-opacity:1;fill-rule:nonzero;stroke:none;stroke-width:1.20271" />
    <path
       id="path9"
       d="m 372.41631,325.71972 c 0,0 14.65858,6.2577 9.6974,15.72902 -4.96117,9.47133 -10.93742,42.78993 -14.77164,45.83399 -3.83304,3.04526 -9.69623,12.85454 -27.3989,12.74147 -17.70265,-0.11299 -37.88527,2.03019 -41.83136,-1.12692 -3.94608,-3.15712 -13.07945,-22.21281 -12.51538,-25.93399 0.56286,-3.7212 1.35304,-11.50029 22.66262,-8.7942 21.31078,2.70609 24.69398,0.2249 23.79197,-2.81914 -0.90204,-3.04407 -2.9322,-5.63831 -9.24642,-7.1032 -6.31422,-1.46609 -32.69803,2.59302 -33.37515,1.24 -0.67591,-1.35305 -2.36812,-3.94609 5.18728,-5.07422 7.55421,-1.12695 23.11364,-3.94609 38.22326,2.14321 15.1084,6.08811 16.46145,-22.32586 13.75536,-27.28703 -2.70609,-4.96117 25.82096,0.45101 25.82096,0.45101 z"
       style="display:inline;fill:#333333;fill-opacity:1;fill-rule:nonzero;stroke:none;stroke-width:1.20271" />
    <path
       id="path10"
       d="m 394.06502,339.92731 c 0,0 4.51015,0 4.28525,12.17621 -0.22611,12.17863 -4.05914,23.90502 -3.60811,33.82737 0.45101,9.92234 2.02895,26.38379 -4.05918,42.16932 -6.08926,15.78553 -13.07941,27.28703 -13.07941,27.28703 l -19.61977,2.02897 -19.61857,-8.11829 c 0,0 1.80405,-3.15709 2.93099,-3.60811 1.12814,-0.45102 16.01164,0 16.01164,0 0,0 18.04062,-8.34316 19.39367,-9.24522 1.35305,-0.90202 6.99015,-20.9728 8.34317,-22.32585 1.35306,-1.35305 9.02032,-74.19143 9.02032,-74.19143 z"
       style="display:inline;fill:#333333;fill-opacity:1;fill-rule:nonzero;stroke:none;stroke-width:1.20271" />
    <path
       id="path11"
       d="m 459.30708,404.23368 19.07496,4.79281 -0.0481,10.08589 -28.42722,-9.08044 z"
       style="display:inline;fill:#333333;fill-opacity:1;fill-rule:nonzero;stroke:none;stroke-width:1.20271" />
    <path
       id="path12"
       d="m 761.56798,477.01675 -158.89452,-38.50107 1.36268,8.50795 29.73934,7.91621 29.21258,50.85289 54.70395,16.5324 11.78774,-1.09445 z"
       style="display:inline;fill:#f9f9f9;fill-opacity:1;fill-rule:nonzero;stroke:none;stroke-width:1.20271" />
    <path
       id="path13"
       d="m 74.008886,572.09197 85.537764,-62.98338 7.26796,7.26796 c 0,0 -25.32782,19.45982 -36.01989,22.84303 -10.69327,3.37719 -45.054618,31.13328 -47.545431,31.43876 -2.494418,0.31031 -9.240403,1.43363 -9.240403,1.43363 z"
       style="display:inline;fill:#333333;fill-opacity:1;fill-rule:nonzero;stroke:none;stroke-width:1.20271" />
    <path
       id="path14"
       d="m 305.09232,401.9269 c 0,0 7.61194,16.524 -3.56482,21.20251 -11.18159,4.68457 -17.57637,-11.825 -17.57637,-11.825 l 16.31233,32.75574 20.56387,-10.34088 z m -26.02659,10.22782 c 0,0 6.35631,17.33101 -7.07072,20.60598 -13.43183,3.27017 -18.40264,-13.9021 -18.40264,-13.9021 l 14.00073,34.51772 24.94657,-7.73821 z m -37.83358,12.67052 c 0,0 13.84919,15.22268 3.03924,23.78235 -10.80512,8.55967 -23.30727,-7.03827 -23.30727,-7.03827 l 28.80844,29.79591 19.30949,-17.59441 z m -25.3182,23.79556 c 0,0 13.30556,12.40353 4.73627,20.97283 -8.5693,8.56928 -20.74672,-4.28405 -20.74672,-4.28405 l 27.51194,24.12874 15.10843,-17.36471 z"
       style="display:inline;fill:#333333;fill-opacity:1;fill-rule:nonzero;stroke:none;stroke-width:1.20271" />
    <path
       id="path15"
       d="m 478.50832,397.29527 c 0,0 1.18347,19.51033 11.84909,18.10195 10.65958,-1.41439 8.54042,-20.28244 8.54042,-20.28244 l 1.39994,39.32371 -20.3522,0.97177 z m 32.84836,-5.99068 c 0,0 -7.05629,17.76397 6.75683,21.46593 13.81187,3.70193 19.43094,-13.92976 19.43094,-13.92976 l -15.43796,35.34396 -25.61889,-8.59335 z m 32.21091,5.52042 c 0,0 -7.70933,19.06049 5.32318,23.37343 13.02775,4.30807 19.35036,-14.64419 19.35036,-14.64419 l -16.68274,37.89973 -24.06739,-9.86219 z m 33.74559,10.45394 c 0,0 -8.17001,16.22692 2.77221,21.31919 10.94225,5.09225 17.90472,-11.17196 17.90472,-11.17196 l -17.41642,32.13033 -20.06476,-11.09255 z"
       style="display:inline;fill:#333333;fill-opacity:1;fill-rule:nonzero;stroke:none;stroke-width:1.20271" />
    <path
       id="path16"
       d="m 500.75841,439.18315 c 0,0 5.36048,6.23364 1.94478,18.21381 -3.41567,11.97536 13.45108,-8.85071 6.6955,-14.88351 -6.76164,-6.03155 -8.64028,-3.3303 -8.64028,-3.3303 z"
       style="display:inline;fill:#333333;fill-opacity:1;fill-rule:nonzero;stroke:none;stroke-width:1.20271" />
    <path
       id="path17"
       d="m 302.5041,449.51442 c 0,0 -4.73506,7.55421 0.85993,19.83988 5.59981,12.28565 -15.83726,-7.30163 -9.57475,-14.86548 6.26249,-7.56383 8.71482,-4.9744 8.71482,-4.9744 z"
       style="display:inline;fill:#333333;fill-opacity:1;fill-rule:nonzero;stroke:none;stroke-width:1.20271" />
    <path
       id="path18"
       d="m 187.09587,486.5061 c 0,0 7.04668,1.97846 12.01747,-3.88956 4.97078,-5.86319 0.13231,-13.37049 0.13231,-13.37049 0,0 23.02463,13.06022 21.69083,14.1739 -1.33863,1.10892 -16.90889,14.69109 -16.90889,14.69109 z m -13.12636,9.75876 c 0,0 4.19986,2.45715 8.40453,-0.4883 4.20106,-2.94661 2.36332,-8.59333 2.36332,-8.59333 0,0 12.60077,12.27605 11.54839,12.76434 -1.04755,0.4931 -13.38974,6.62934 -13.38974,6.62934 z m -10.59826,9.6361 c 0,0 3.60813,2.25387 7.21625,-0.4522 3.60813,-2.7061 2.02898,-7.89217 2.02898,-7.89217 0,0 10.82435,11.27538 9.92233,11.72639 -0.90203,0.45103 -11.50028,6.0881 -11.50028,6.0881 z"
       style="display:inline;fill:#333333;fill-opacity:1;fill-rule:nonzero;stroke:none;stroke-width:1.20271" />
    <path
       id="path19"
       d="m 625.87731,434.07646 -2.70611,11.04929 135.19275,36.42038 2.48001,-7.21624 -6.76522,-54.12186 -65.39724,-15.33449 -50.96475,29.54091 z"
       style="display:inline;fill:#333333;fill-opacity:1;fill-rule:nonzero;stroke:none;stroke-width:1.20271" />
    <path
       id="path20"
       d="m 315.58835,399.46136 c 0,0 7.21625,-0.67714 9.69742,0 2.48,0.67591 34.50208,-2.03019 41.71834,-7.89339 7.21625,-5.86319 16.46265,-3.38321 18.26672,1.12695 1.80406,4.51015 0.2249,24.58091 -1.80407,32.24817 -2.03014,7.66728 -9.02031,16.23656 -13.98148,17.3635 -4.96117,1.12814 -24.35482,5.18727 -29.99312,2.70608 -5.6371,-2.47998 -10.14725,-8.56808 -10.59826,-13.53046 -0.451,-4.95994 -13.07944,-23.00055 -13.53044,-26.60867 -0.45103,-3.60813 0.22489,-5.41218 0.22489,-5.41218 z"
       style="display:inline;fill:#ffffff;fill-opacity:1;fill-rule:nonzero;stroke:none;stroke-width:1.20271" />
    <path
       id="path21"
       d="m 275.44798,321.77363 c 0,0 7.61074,3.10059 10.31684,4.56669 2.70609,1.46491 8.45623,2.59303 8.45623,2.59303 0,0 -4.73506,4.05916 -6.65218,4.28405 -1.9171,0.22612 -7.49769,0.62059 -8.51277,-1.18346 -1.01508,-1.80406 -4.79159,-6.03277 -3.60812,-10.26031 z m 103.76601,-30.1663 c -0.95736,0.31873 -20.89224,17.69784 -21.53086,23.2784 -0.63383,5.58177 19.61493,0.79861 21.37209,-4.78196 1.75236,-5.58176 0.15877,-18.49644 0.15877,-18.49644 z"
       style="display:inline;fill:#ffffff;fill-opacity:1;fill-rule:nonzero;stroke:none;stroke-width:1.20271" />
    <path
       id="path22"
       d="m 464.52686,146.65701 v 0.005 c -1.70545,0.0842 -3.45779,0.29106 -5.25224,0.63024 -10.63674,2.0097 -25.16304,10.77624 -44.40637,26.79269 l -5.70322,4.74469 -10.29879,-2.04822 c -5.66597,-1.12333 -12.34099,-2.60748 -14.83182,-3.29302 -2.49439,-0.68674 -5.30874,-1.24962 -6.25285,-1.24962 -5.35084,0 -18.88131,5.23301 -27.9389,10.80514 l -3.90521,2.40059 -3.88955,-1.71987 c -6.17831,-2.73376 -10.1761,-1.91592 -26.44514,5.38931 l -14.09452,6.32867 -7.61072,0.005 c -13.43669,0.0136 -19.33716,-1.24962 -33.01797,-7.0575 -6.84098,-2.90814 -14.11857,-5.66596 -16.16677,-6.135 -13.63752,-3.11984 -23.86535,2.42827 -28.24439,15.31527 -1.58277,4.65087 -1.96403,7.51693 -1.98207,14.88351 -0.0433,16.80543 3.29783,24.7409 15.92146,37.82034 4.67491,4.83849 8.49832,9.12254 8.49832,9.51342 0,0.39448 -2.50404,3.2413 -5.56733,6.32745 l -5.57095,5.60942 3.53236,1.39154 c 1.94477,0.76131 3.3736,1.78962 3.18116,2.28274 -0.18884,0.49311 -3.44936,5.37489 -7.23549,10.84843 -7.27278,10.49482 -15.69654,25.863 -15.69654,28.62444 0,1.32537 0.55925,1.64047 2.98874,1.64047 2.1372,0 2.86965,0.31031 2.56899,1.09447 -1.35305,3.52754 -4.73028,14.93523 -4.73028,15.97798 0,1.20271 2.80473,1.13174 7.66726,-0.20687 1.29172,-0.3524 1.45169,0.3103 1.44206,6.0845 -0.005,6.35632 1.68619,31.05391 2.1709,31.66006 0.13593,0.16959 2.12757,-1.0716 4.41994,-2.75299 2.29357,-1.68137 4.51977,-2.83719 4.95636,-2.5702 1.43363,0.88883 4.21429,9.56996 4.20948,13.13118 -0.003,3.23289 -0.26701,3.64542 -3.47583,5.47835 -1.91229,1.08963 -5.17284,3.54196 -7.24992,5.44464 -2.07589,1.9075 -5.64191,4.52941 -7.91983,5.82592 -5.64792,3.21363 -20.41836,15.53177 -22.07209,18.40744 -0.73725,1.28209 -2.14204,4.75909 -3.11981,7.72379 -0.97661,2.96347 -3.07172,7.01779 -4.65569,9.01067 -5.92936,7.46042 -10.03058,20.27646 -11.34515,33.32823 -5.45548,4.59917 -10.70289,9.44247 -15.84686,14.39403 -0.18885,0.12748 -0.38608,0.24893 -0.57369,0.38124 -0.32354,0.21648 -0.62901,0.45584 -0.87798,0.7565 -0.34278,0.40411 -0.7144,0.77936 -1.06201,1.18347 0.009,0.024 -0.0842,0.18761 -0.16477,0.34277 -3.92683,3.83904 -7.83203,7.70094 -11.67948,11.60012 -4.70739,5.89568 -6.58605,14.06566 -13.26226,18.29439 -17.56194,14.216 -35.908033,27.62377 -53.426667,41.93481 -7.356985,9.94519 -14.718753,19.88675 -22.072102,29.83315 11.976576,-4.10243 24.420986,-6.83139 36.213542,-11.41731 19.317887,-14.25328 38.410867,-28.84572 57.946427,-42.79953 7.68532,-3.56001 16.55046,-4.45363 23.50332,-9.58799 4.24796,-2.47158 8.45744,-5.03212 12.68016,-7.57347 3.72117,5.61424 8.11827,10.67886 13.02411,14.70071 5.89567,4.82407 19.54881,11.8623 26.73619,13.77461 7.9066,2.10955 21.35286,2.52207 27.70438,0.85993 6.1362,-1.61163 14.95445,-5.87282 21.9073,-10.58985 l 4.8397,-3.28458 13.34165,0.28745 13.34764,0.28144 2.73856,-3.73081 c 1.50821,-2.05301 3.24252,-4.44402 3.84748,-5.31717 1.0668,-1.53224 1.0151,-1.01508 5.81628,1.23038 15.0062,7.01899 20.13214,13.32359 46.86832,32.67995 11.94769,12.40232 18.78268,23.42034 24.19966,38.97978 l 1.44206,4.14814 1.84255,-4.14814 c 1.01029,-2.27795 2.47517,-7.22108 3.25093,-10.97952 l 1.40476,-6.83981 5.82591,7.25351 c 12.77396,15.90824 24.25983,34.89297 27.18241,44.91872 1.63086,5.59504 1.65851,16.86079 0.0661,24.10109 -0.64827,2.96346 -1.19791,5.65633 -1.21715,5.97985 h 0.005 c -0.0192,0.32954 3.79574,-2.21298 8.47068,-5.63708 14.95444,-10.9699 33.69985,-23.1004 52.44043,-33.94401 39.76874,-23.0018 48.53048,-29.02978 69.13643,-47.53943 6.16872,-5.5445 16.67316,-17.28892 26.62918,-29.78628 7.4688,-9.37749 7.53976,-8.50313 0.64345,7.992 -1.7812,4.26601 -3.10058,7.89698 -2.92739,8.06658 0.47024,0.46905 13.35726,-12.73669 17.05439,-17.47656 16.25459,-20.82729 26.57263,-48.93576 29.10911,-77.39182 0.22492,0.41372 0.80825,1.4228 1.37232,2.39099 2.21178,3.79573 19.67028,33.86824 19.90481,34.29157 0.32473,0.58214 1.29651,2.2599 3.87633,6.68107 l 2.12396,3.64058 2.80474,0.92969 c 1.54067,0.51235 7.99558,2.664 14.34228,4.78798 26.58223,8.87961 37.72654,12.38429 40.76097,12.81124 5.30873,0.7517 9.44364,0.0938 12.11607,-1.9171 4.1818,-3.14748 7.08034,-6.48741 12.69455,-14.6526 2.38138,-3.4626 6.27695,-9.05759 8.65348,-12.43118 2.37295,-3.36878 5.67556,-8.0954 7.33893,-10.49605 1.65852,-2.4006 3.14268,-4.53298 3.30267,-4.73985 1.25923,-1.75234 1.89786,-2.7013 2.13721,-3.83421 0.23931,-1.12698 0.0806,-2.44274 -0.25859,-4.93233 0.0468,-0.55925 0.0433,-1.3723 -0.003,-1.80408 -0.0481,-0.43658 -0.30069,-2.89851 -0.56408,-5.48313 -0.26339,-2.58341 -0.55446,-5.47352 -0.65309,-6.42245 -0.0987,-0.94894 -0.35718,-3.54678 -0.56405,-5.76941 -1.08485,-11.41127 -2.60746,-23.34934 -3.32186,-25.98447 -0.36083,-1.3338 -0.66152,-2.50886 -0.66632,-2.60747 -0.005,-0.0938 -0.25379,-0.85031 -0.54965,-1.67297 -0.66748,-1.86903 -1.37228,-3.24613 -2.37294,-4.43919 h -0.005 c -1.00067,-1.19791 -2.30198,-2.21299 -4.17702,-3.36879 -3.66344,-2.26831 -6.09771,-3.05368 -13.86359,-4.47647 -2.58342,-0.47025 -12.84491,-2.38257 -22.79973,-4.24798 -9.9548,-1.86418 -20.13092,-3.74403 -22.61692,-4.17098 l -4.51014,-0.77575 -4.0303,2.35852 c -7.12241,4.16737 -31.19099,18.48681 -33.85019,20.14534 -4.95635,3.08617 -13.35608,7.96313 -16.53243,9.69623 -1.06197,-13.23821 -3.48064,-24.29349 -8.75691,-39.51014 -1.09928,-3.17155 -4.04951,-10.19056 -3.92805,-10.31202 0.21169,-0.21168 3.92805,2.53651 6.62934,7.13085 3.45778,5.88244 3.28819,9.16703 5.2895,13.28152 2.30198,4.73142 9.49055,-12.89064 5.77419,-24.01567 -3.11019,-9.32101 -2.61227,-10.26152 -7.62997,-18.82599 -1.69101,-2.87929 -19.17716,-29.34848 -5.80666,-16.78619 22.23203,25.0548 -15.91184,-32.94699 -23.51776,-39.96599 -5.4735,-5.04654 -10.06424,-9.43402 -10.20015,-9.74432 -0.14075,-0.31031 1.57432,-0.95376 3.80537,-1.43244 5.39415,-1.15581 12.56345,-3.92322 14.94483,-5.76457 1.91714,-1.48535 1.9123,-1.48535 -4.56185,-2.99715 -9.74798,-2.28394 -18.91859,-5.7321 -27.0369,-10.17129 l -7.29201,-3.98459 8.0341,-1.01026 c 8.0846,-1.01388 13.24302,-2.30199 13.96704,-3.47583 0.2165,-0.34758 -3.97495,-1.48534 -9.31616,-2.52328 -20.11291,-3.89917 -33.71314,-8.94933 -49.56482,-18.38819 l -8.57409,-5.10669 3.18957,-1.57917 c 1.75235,-0.86835 3.80176,-2.25507 4.55347,-3.08613 1.29651,-1.43244 1.11729,-1.53106 -3.84869,-2.0855 -11.18154,-1.2412 -28.00984,-5.80308 -41.90114,-11.36078 -2.91775,-1.16903 -3.38318,-2.42828 -1.48051,-4.00743 1.97846,-1.64411 9.39194,-13.6339 11.37399,-18.40263 1.49857,-3.60813 1.83655,-6.02676 1.84136,-13.13116 0.005,-9.71066 -1.41801,-14.87871 -6.33706,-23.01501 -7.00458,-11.59532 -16.77658,-17.24201 -28.72429,-16.6551 z m 3.20882,9.00228 c 6.17349,0 9.99328,1.77519 14.63454,6.81694 8.31069,9.0155 11.32228,21.45509 7.91141,32.68357 -2.25508,7.43275 -9.2452,17.45369 -19.11582,27.41813 -4.15777,4.19985 -7.56023,7.96794 -7.56023,8.37205 0,0.40892 2.42946,1.77159 5.40377,3.03563 6.29016,2.67242 19.46822,10.36374 19.46822,11.36439 0,0.37525 -0.65308,0.68072 -1.45166,0.68072 -2.90815,-0.005 -15.95993,2.67844 -15.95993,3.27979 0,0.91527 12.41795,10.44792 22.78649,17.48617 l 9.10449,6.18193 -9.04795,0.60616 c -4.97562,0.32952 -9.3631,0.91646 -9.74915,1.30132 -0.38487,0.39088 0.54001,2.35369 2.05302,4.37424 5.75975,7.69133 17.19028,26.56781 17.19028,28.39473 0,0.17921 -4.52817,0.13713 -10.05823,-0.089 -5.75978,-0.23932 -9.92235,-0.0987 -9.7347,0.32473 0.17919,0.40892 2.14199,4.28406 4.36944,8.6162 3.6081,7.02861 7.13205,15.68211 7.13205,17.51383 0,0.36683 -3.04046,-0.7986 -6.75202,-2.59304 -3.71156,-1.79924 -7.00458,-3.10539 -7.31487,-2.91776 -0.30908,0.19243 0,3.904 0.68677,8.25057 0.69033,4.3502 1.03793,8.11828 0.77934,8.37687 -0.26339,0.25738 -2.2262,-1.13295 -4.36943,-3.09216 -4.68336,-4.27925 -10.23144,-8.12309 -11.72641,-8.12309 -0.75649,0 -0.34758,1.63566 1.3398,5.40375 2.57381,5.74053 5.17647,13.73131 4.64128,14.26773 -0.17441,0.1732 -2.50404,-0.2213 -5.17767,-0.88398 -6.74598,-1.67178 -11.53759,-2.29717 -13.08425,-1.70545 -1.06561,0.40893 -1.30973,1.96883 -1.30973,8.38167 0,6.73757 -0.18403,7.80797 -1.26887,7.39063 -4.57631,-1.75715 -12.88702,-3.89557 -13.54488,-3.49144 -0.43662,0.27301 -1.25925,3.19557 -1.83175,6.49823 -0.56889,3.30262 -1.14616,6.14462 -1.27367,6.30939 -0.1311,0.16838 -1.62483,-0.8407 -3.32189,-2.24064 -3.48543,-2.87086 -4.04952,-2.80593 -4.7206,0.54963 -0.40413,2.00973 -1.75235,3.03924 -8.86157,6.77848 -4.60877,2.42465 -10.18452,6.11697 -12.39268,8.21208 -6.44654,6.11697 -11.27059,17.22877 -16.0682,36.97484 -3.43852,14.14022 -8.85551,23.56464 -15.49325,26.95265 -3.21848,1.64413 -9.73953,2.60268 -13.25384,1.94961 -4.44883,-0.82749 -12.12572,-3.7308 -14.09935,-5.33762 l -2.07107,-1.6814 5.03574,0.5256 c 10.68845,1.1137 23.61758,-2.27792 28.83251,-7.5542 7.10319,-7.19219 11.02161,-24.80587 13.8119,-62.11263 0.47987,-6.38519 1.46129,-14.96891 2.18532,-19.07015 1.74752,-9.90309 1.85576,-18.3978 0.28624,-21.52605 -1.602,-3.1908 -6.19634,-6.24927 -9.38712,-6.24927 -4.22392,0 -9.53628,3.11501 -11.34033,6.64856 -1.9881,3.89439 -2.7867,7.39906 -5.02253,22.04805 -2.60264,17.07242 -7.36176,27.43135 -14.70068,31.99322 -2.86606,1.78121 -4.24677,1.94598 -20.89223,2.46677 -9.80447,0.30547 -19.97097,0.81783 -22.58806,1.13654 -4.16258,0.50755 -5.30394,0.3103 -9.11892,-1.60201 -2.69286,-1.34822 -5.34244,-3.53235 -6.92038,-5.69842 -3.04044,-4.17701 -4.75432,-7.25835 -4.29007,-7.72379 1.01029,-1.01028 11.06493,2.74818 16.89925,6.31421 3.70194,2.25989 7.25353,4.11086 7.88375,4.11086 0.62901,0 2.16608,-1.68139 3.40605,-3.73922 1.24481,-2.05783 3.1054,-4.07838 4.13853,-4.4825 1.03433,-0.4041 3.6935,-1.38069 5.9053,-2.16126 4.53901,-1.60682 9.1526,-5.30394 10.94221,-8.76654 1.89789,-3.67307 1.5503,-10.76302 -0.69035,-14.08972 -5.02729,-7.45557 -22.59767,-10.81957 -42.81878,-8.19284 -3.38202,0.43659 -6.34189,0.60617 -6.5764,0.37163 -0.64828,-0.64825 1.53587,-8.55606 3.77167,-13.65312 2.37777,-5.4122 4.29489,-7.5915 9.21276,-10.4768 l 3.66946,-2.14682 -0.55927,-4.266 c -0.67592,-5.1909 -3.11019,-14.62494 -3.77651,-14.62494 -0.2682,0 -0.91645,1.58757 -1.44203,3.52394 -1.46611,5.39295 -6.07487,12.4817 -8.7064,13.40779 -2.94543,1.03311 -5.87643,-0.35721 -15.82764,-7.5073 -6.47899,-4.65087 -16.05375,-10.25188 -17.52826,-10.25188 -0.24417,0 -0.4414,0.93088 -0.4414,2.07225 0,1.14138 -0.27781,2.07226 -0.62061,2.06745 -1.90267,-0.009 -6.27693,-3.75363 -7.33409,-6.27693 -1.47451,-3.53715 -1.08485,-6.07486 2.68805,-17.2841 1.52143,-4.52939 2.58341,-8.41414 2.35851,-8.64025 -0.81305,-0.81183 -4.4452,3.41088 -6.90237,8.02928 -3.98333,7.47001 -5.48192,13.90689 -4.29364,18.38819 1.32057,4.97559 7.53618,10.93261 16.25578,15.58828 5.9378,3.16675 7.18739,4.26602 10.85205,9.53748 4.11086,5.91493 7.12244,8.20728 12.14975,9.25964 l 2.35371,0.48831 -2.14203,2.81434 c -2.73016,3.57564 -2.74941,4.76392 -0.0757,4.0928 2.27433,-0.56888 2.46677,-0.0151 1.55029,4.55706 -0.42695,2.14203 -2.32485,1.51662 -4.63646,6.22884 -5.89686,11.9946 -1.68257,18.844 0.95857,20.53503 5.08747,3.25693 8.97702,8.05333 6.89154,7.56863 -1.27366,-0.29104 -9.86583,-2.98271 -12.46851,-4.22271 -4.25153,-2.02535 -5.17765,-2.96948 -9.12852,-9.30294 -2.41504,-3.87512 -4.67493,-7.15009 -5.02731,-7.27277 -0.3476,-0.12144 -1.48416,1.48534 -2.5269,3.57084 -1.71988,3.44816 -1.99289,3.65984 -2.9743,2.32123 -0.59174,-0.81305 -2.13721,-4.73987 -3.43855,-8.72927 -1.30134,-3.99298 -2.73495,-7.14527 -3.1956,-7.01417 -0.45461,0.13109 -2.0061,2.19373 -3.45296,4.58591 -2.17449,3.61173 -2.70609,4.07236 -3.13306,2.73376 -0.82745,-2.6123 -2.10474,-15.07112 -2.11437,-20.62043 0,-2.82275 -0.34277,-5.34122 -0.7613,-5.59979 -0.41734,-0.25379 -2.78066,1.38671 -5.25702,3.64539 l -4.50055,4.11567 0.72765,-4.73026 c 0.40409,-2.60264 1.40956,-7.62515 2.24184,-11.15871 l 1.50819,-6.42606 h -3.25572 c -3.74042,0 -3.75005,0.39928 0.27182,-9.49057 1.28688,-3.16675 2.20817,-5.88605 2.0482,-6.04601 -0.15514,-0.15997 -2.02416,0.14558 -4.14815,0.68073 -2.12757,0.5352 -4.04949,0.79378 -4.2708,0.57369 -0.22011,-0.2213 1.31094,-2.73015 3.40127,-5.57214 11.67948,-15.86131 17.31295,-27.37603 21.12794,-43.15676 2.57379,-10.6596 4.43439,-15.44277 8.259,-21.25426 l 1.71508,-2.59304 -6.54997,-9.84294 c -8.46104,-12.71743 -12.12568,-16.3015 -16.76694,-16.40014 -2.86125,-0.0613 -3.74884,0.32354 -5.21976,2.26833 -1.50337,1.99287 -1.76676,3.46741 -1.76676,9.9512 0,6.63774 0.29225,8.20246 2.30319,12.29889 1.26764,2.57979 4.72061,7.30163 7.67085,10.48639 5.22457,5.64672 6.60647,8.45143 4.16258,8.45143 -0.66151,0 -4.15295,-2.8937 -7.75144,-6.42607 -10.19896,-10.00773 -14.12221,-20.26321 -13.22979,-34.57302 0.33794,-5.38935 0.95853,-7.99201 2.80952,-11.68913 3.1571,-6.32865 6.25768,-8.09542 13.30436,-7.58307 4.33695,0.31512 7.43271,1.48535 20.1273,7.60111 8.24937,3.97495 16.48554,7.42794 18.2992,7.67207 l 3.29301,0.4426 -3.026,4.21789 c -3.28822,4.5715 -7.35696,12.82208 -6.66662,13.51243 0.23573,0.23454 3.14389,-1.85097 6.45973,-4.63763 9.18991,-7.71418 14.10898,-10.66442 23.79681,-14.25812 4.88056,-1.80886 12.976,-4.92388 17.99371,-6.92036 12.42155,-4.93833 12.85332,-5.0129 17.41519,-2.99715 l 3.88113,1.71866 -1.83774,2.9695 c -4.05433,6.55354 -9.20311,18.75982 -10.66439,25.26648 -0.40894,1.81368 -0.65792,3.29783 -0.54965,3.29783 0.10349,0 2.53289,-4.66051 5.39775,-10.35412 5.02251,-9.98368 11.88155,-19.455 16.64065,-22.96931 1.15101,-0.85031 6.37558,-3.06812 11.60975,-4.92871 12.42639,-4.41994 19.44056,-4.91427 33.95725,-2.40539 10.04861,1.7391 11.58567,2.4018 11.60852,5.00445 0.0151,2.02415 3.52394,13.26225 4.13972,13.26225 0.31031,0 1.01027,-1.95919 1.55995,-4.35018 0.5448,-2.3958 1.95439,-7.50732 3.1234,-11.36078 2.4812,-8.17 3.92325,-9.77561 17.7219,-19.70758 13.76983,-9.90912 24.50035,-14.32422 34.81238,-14.32422 z m -2.33928,17.66416 c -3.95209,-0.31512 -8.45744,1.48894 -12.74148,5.77418 -6.01834,6.01836 -12.93392,20.37028 -14.34347,29.75739 -0.64827,4.34539 -1.01511,4.12049 8.70997,5.31358 2.50887,0.30548 4.8349,0.97779 5.16806,1.49376 0.33435,0.51236 0.61579,2.83359 0.62058,5.14878 0.009,2.32123 0.26341,4.46326 0.56768,4.76875 1.0572,1.05717 2.37296,0.51716 6.23004,-2.56538 11.2008,-8.94935 17.28892,-20.24398 17.35024,-32.18566 0.0564,-10.56579 -4.9852,-16.97501 -11.56162,-17.5054 z m 24.73009,65.31303 c 3.14747,-0.0661 11.01681,1.38072 16.97021,3.35435 6.47297,2.15165 24.10104,10.73056 32.787,15.96355 1.5972,0.95855 7.56383,3.62736 13.25865,5.92453 6.43086,2.59304 10.45273,4.67012 10.60788,5.48315 0.41375,2.1324 -6.19636,3.50468 -14.4325,2.98752 l -7.08995,-0.4414 6.0845,4.43439 c 3.34471,2.43908 11.79254,7.90298 18.77305,12.14494 11.55322,7.01418 16.30271,9.96924 28.76636,17.90471 2.27912,1.44686 3.55281,2.63993 2.8336,2.64475 -0.72403,0.009 -1.47574,-0.15025 -1.66816,-0.34278 -1.62487,-1.62605 -25.74037,-4.75428 -51.74408,-6.71832 -3.1908,-0.24414 -7.92105,-0.64826 -10.50568,-0.90202 l -4.69296,-0.46545 0.4462,-5.95221 0.45584,-5.95701 -5.08745,-6.75199 c -6.09413,-8.08461 -17.75438,-20.07922 -24.3789,-25.07285 l -4.79638,-3.61774 3.02961,-1.82812 3.02602,-1.82692 -6.7087,-4.72664 c -3.68871,-2.59785 -6.95407,-5.12954 -7.25836,-5.62385 -0.24895,-0.3993 0.27664,-0.59174 1.3242,-0.61459 z m -83.62548,29.11394 c -2.15163,-0.34276 -13.74696,4.20949 -18.79712,7.38463 -8.65828,5.43623 -13.37531,9.80567 -22.78047,21.11352 -5.35206,6.42728 -11.17194,13.09388 -12.94356,14.81375 -7.62035,7.42192 -17.20952,9.51343 -24.35963,5.30877 -3.29781,-1.94118 -4.70739,-3.44937 -9.53746,-10.22783 -1.08003,-1.50818 -1.18347,-1.21233 -1.18828,3.31587 -0.005,6.31902 2.53171,11.62416 6.59082,13.80345 2.31162,1.24001 4.69899,1.53588 12.26283,1.53588 5.51079,0 10.14725,0.3993 11.20923,0.95855 3.56602,1.88946 8.7906,6.67623 12.18701,11.17676 1.89789,2.51848 3.56124,4.45363 3.68751,4.30328 0.29589,-0.33795 -0.99581,-11.16713 -1.6489,-13.84916 -0.42212,-1.74755 -0.25858,-1.90749 1.42883,-1.39997 3.53717,1.06562 12.85814,1.53587 13.39334,0.67112 0.29224,-0.47385 -3.04885,-2.16607 -7.81277,-3.9557 -4.57513,-1.71507 -8.01965,-3.39644 -7.65285,-3.73921 0.36685,-0.33796 2.95505,-0.77095 5.75017,-0.95856 11.03605,-0.74689 16.41575,-6.02316 21.19289,-20.79362 2.62191,-8.10385 3.00195,-8.73886 8.83268,-14.69588 3.34956,-3.42051 7.3666,-8.08581 8.93132,-10.36854 2.56537,-3.74404 2.68683,-4.16738 1.25441,-4.39711 z m -27.46983,27.12226 -0.005,2.32002 c -0.0151,6.17349 -3.99302,12.93393 -9.19831,15.62558 -2.28875,1.18466 -8.20847,1.6874 -8.20847,0.69637 0,-1.03913 10.97588,-13.46552 14.1318,-16.00683 z m -102.41299,29.0009 c 0.76977,0.0661 2.58343,0.82625 4.78197,2.02895 2.85165,1.56473 6.301,3.10541 7.66729,3.42534 l 2.49081,0.58209 -2.07227,1.14618 c -2.41984,1.33982 -6.45494,1.50337 -8.4382,0.34398 -1.57316,-0.91648 -4.82888,-5.87763 -4.82888,-7.35816 0,-0.14076 0.14075,-0.19243 0.39928,-0.16838 z m 108.93887,21.13156 c 0.69035,0.13231 1.59722,0.76132 2.27792,1.79926 1.06201,1.62608 1.39635,3.65501 1.27368,7.71899 -0.0938,3.03563 -0.83106,10.36372 -1.64892,16.29307 l -1.48053,10.78227 -0.59655,-17.27448 c -0.3235,-9.5002 -0.6759,-17.66058 -0.77455,-18.13924 -0.20203,-0.94534 0.26341,-1.31097 0.94895,-1.17987 z m -74.183,9.8562 c 7.15492,0.11783 13.66637,0.99704 17.4958,2.60746 2.19373,0.92609 1.21231,1.062 -8.2915,1.17024 -13.00965,0.14075 -13.81306,-2.63994 -25.89668,0.38486 -6.26729,1.56954 -12.5623,3.85349 -11.92844,2.19496 0.27781,-0.72404 0.50271,-1.45648 0.50271,-1.63569 0,-0.83589 1.39033,-1.54066 6.77003,-2.75301 6.39845,-1.44206 14.19799,-2.08549 21.34808,-1.96882 z m 220.674,6.75199 c 1.1979,0.0278 2.56054,0.14076 3.77167,0.45583 5.97146,0.74208 19.8447,5.17645 27.20287,7.08394 7.19699,1.52264 12.57671,4.22874 17.95041,8.98304 0.0516,0.0661 6.93963,8.8375 10.6644,10.20856 6.45133,4.31774 13.12756,11.42093 13.6387,14.27735 0.53642,2.98393 -1.43722,5.40739 -4.77234,9.88988 -7.07554,12.07878 -13.35728,23.44316 -20.94395,32.42139 -3.62735,-2.29717 -11.88635,-5.9426 -12.30969,-8.71482 1.50339,-4.54263 3.06327,-8.7521 10.19534,-25.59002 3.47099,-7.92103 7.09838,-16.66953 6.20598,-20.7046 -0.61099,-4.69418 -2.73016,-5.3749 -3.09097,-5.78383 -0.78057,-0.79378 -4.01226,-1.4661 -6.38519,1.20752 -3.34954,3.07774 -7.29561,21.18812 -11.08776,30.80495 -4.71219,8.08581 -8.07619,14.78488 -11.92847,22.98375 -2.84199,-1.39034 -15.90219,-7.60232 -16.02003,-8.49474 -0.93935,-1.53585 0.0469,-5.0598 1.96883,-11.24652 1.68138,-5.06939 3.05366,-9.39674 6.66178,-18.42668 5.27147,-10.44792 8.27826,-21.413 8.7004,-23.30244 -0.89722,-2.14202 -2.08069,-3.22688 -4.63644,-4.77717 -1.09567,-0.69516 -3.40606,-0.37163 -5.03694,1.20752 -3.33511,3.11022 -6.8783,15.47043 -6.8446,15.70976 -4.64727,10.87609 -5.14038,16.11029 -10.55257,31.66009 -0.53521,2.49079 -1.01869,5.26666 -1.88826,9.42442 -2.95503,0.0661 -9.66374,-0.42217 -13.04217,-0.57731 0.0193,-0.88399 -3.72959,-10.5706 -4.73024,-17.30816 2.0013,-11.95132 8.63905,-24.81065 10.95066,-35.40411 0.0192,-1.41918 -0.45101,-2.23704 -1.98205,-2.29717 -2.2503,-0.3103 -3.59971,1.88825 -3.89558,2.09992 -1.5082,0.51114 -6.2192,11.03966 -12.68856,26.75063 0,0 -1.79565,7.24872 -1.82813,7.70937 -0.4931,6.46935 2.36333,16.17041 1.24962,19.39365 -0.3199,0.92126 -4.44399,1.80406 -8.56447,0.42696 -4.18183,-6.60046 -6.65701,-11.04448 -8.19286,-16.55045 0,-0.65309 -0.17919,-3.12464 0.49794,-6.36596 3.79575,-15.83243 4.47646,-20.28606 13.31877,-30.33589 4.32614,-4.15294 9.31617,-9.9548 18.76345,-12.90986 4.95635,-2.62671 10.44911,-3.1571 15.90821,-3.84384 0.54002,-0.0278 1.56954,-0.089 2.77224,-0.065 z m -102.23976,22.57363 5.29431,7.6444 -11.06853,1.71507 z m 13.0698,0.46063 0.63387,11.16234 -6.6943,-5.74051 z m -87.15901,0.009 c -0.23932,-0.26822 -1.04275,0.50272 -3.63578,3.1571 -1.78121,1.8233 -2.75301,3.31707 -2.15646,3.31707 1.18347,0 5.89086,-4.7074 5.89086,-5.89206 0,-0.28625 -0.0181,-0.49312 -0.0987,-0.58211 z m -90.94034,1.66814 c 6.55356,0.30549 11.48225,1.74755 17.91433,4.93232 8.3011,4.11086 14.22082,9.32578 19.82544,17.46331 7.59631,11.03123 7.91144,11.98497 6.89633,21.08948 -0.48829,4.34537 -1.25923,8.60175 -1.71504,9.45688 -0.9718,1.8233 -7.14531,3.92322 -8.18805,2.78665 -0.38125,-0.41853 -1.35305,-3.56121 -2.15646,-6.9817 -3.04886,-12.93391 -3.93284,-14.43249 -15.24073,-25.95684 -11.60854,-11.83463 -14.85101,-14.2725 -17.94198,-13.49316 -3.38202,0.8455 -2.4427,3.34472 3.96533,10.53812 7.24388,8.1363 15.73864,18.72133 17.16142,21.38055 0.57371,1.06196 1.24122,5.59135 1.48536,10.05821 l 0.44622,8.13271 -5.61906,2.54614 c -3.09097,1.39994 -5.86318,2.54734 -6.15906,2.54734 -0.29589,0 -1.93998,-2.43429 -3.65504,-5.41218 -1.71026,-2.97912 -6.00873,-8.67273 -9.54227,-12.64768 -3.53718,-3.97495 -8.80383,-10.2134 -11.70717,-13.86001 -8.98301,-11.29341 -12.4312,-14.51185 -15.56063,-14.51185 -2.19374,0 -3.06691,0.53521 -4.40193,2.69647 -0.91524,1.48534 -1.55988,3.52392 -1.43722,4.5342 0.12627,1.06681 5.82592,7.66724 13.49316,15.64001 12.06438,12.55265 21.96747,24.86595 21.96747,27.31467 0,0.5256 -2.72895,3.88958 -6.07007,7.47845 l -6.06885,6.51627 -5.33281,-5.0646 c -2.931,-2.78546 -7.1922,-6.5295 -9.47133,-8.31553 -4.72663,-3.70674 -6.68946,-5.91009 -15.25995,-17.12894 -7.20662,-9.42924 -10.14724,-12.11128 -13.2803,-12.11128 -5.8596,0 -6.74719,7.70935 -1.6453,14.25329 1.53225,1.96402 8.45743,9.42923 15.39586,16.58414 6.93482,7.16093 12.9712,13.69522 13.4174,14.52751 0.64827,1.21112 -0.0229,2.63514 -3.34954,7.09358 -2.28273,3.07291 -4.47285,5.58173 -4.85774,5.58173 -1.54546,0 -18.20057,-11.81179 -24.41616,-17.31779 -2.52207,-2.23581 -4.6653,-3.81979 -6.22882,-4.81562 -0.024,-0.0229 -0.56408,-0.51116 -0.56408,-0.51116 0,0 -8.15555,-3.92803 -8.05693,-7.76227 0.0136,-0.5256 0.14075,-1.21112 0.2249,-1.83653 1.74754,-6.76524 3.74044,-11.07333 7.17897,-15.49931 2.14203,-2.76262 4.2191,-6.63293 5.00807,-9.34864 2.84682,-9.80446 6.18794,-13.45587 22.75282,-24.88641 4.78679,-3.30262 10.27956,-7.25834 12.20148,-8.78939 5.47713,-4.36461 11.82021,-6.39839 21.37573,-6.85421 2.664,-0.12748 5.03212,-0.15041 7.21623,-0.0469 z m 188.31274,6.08811 c 0,0 3.49508,0.45101 3.77773,0.62059 0.2814,0.16838 21.5922,6.70873 21.5922,6.70873 0,0 -2.27912,13.09748 -1.40958,15.27797 0.0564,0.14076 -0.16958,0 -0.16958,0 l -23.39625,-5.18726 5.91971,-1.35185 -1.8606,-1.91712 5.30034,-1.2412 -12.23393,-8.73766 c 0,0 9.24521,2.02897 9.07684,1.69101 -0.16958,-0.33796 -6.59688,-5.86321 -6.59688,-5.86321 z m -69.46596,1.6862 0.12748,13.60623 c 0.31032,8.21209 -2.81915,17.30335 -7.15008,23.359 -3.76808,5.25702 -9.51463,9.31617 -14.98334,10.57059 v 0.005 c -4.71098,1.08004 -18.81034,1.062 -21.55852,-0.0373 -3.69354,-1.47089 -5.69965,-4.11567 -6.77007,-8.92166 -0.68554,-3.08255 -2.48118,-6.77968 -5.30873,-10.94224 -5.35566,-7.88855 -10.22302,-17.70746 -10.70289,-19.77369 0.24898,-1.13298 6.76523,-0.79982 7.23549,-0.20689 0.22491,1.1089 4.72663,11.55202 5.60942,14.49744 -0.0661,-2.06144 1.58757,-9.1983 2.18411,-10.51889 2.16128,14.9208 3.38803,19.91082 5.44586,22.95007 1.45648,3.19921 3.3351,8.42857 7.36178,3.5047 2.71572,3.98456 5.6419,1.05718 6.0797,-0.0278 4.07717,2.32122 5.2847,1.77157 7.0743,-0.3945 9.60844,1.10409 11.98018,-12.85454 11.94771,-19.25293 -0.009,-0.20206 0.005,-0.39929 0.0373,-0.59656 -0.21646,-3.74882 -0.39447,-4.91425 -2.25024,-11.54839 7.23548,5.89688 9.45689,11.86713 9.54228,20.41354 0,0.20686 0,0.41374 0,0.6206 1.39514,-2.57979 2.69165,-5.3328 3.7344,-8.26499 z m -21.68122,0.34879 c 0.82745,0 0.55925,8.46587 -0.36684,11.8106 -0.47866,1.71026 -1.12691,3.08615 -1.44684,3.05368 -0.88759,-0.0938 -9.15621,-6.90114 -9.22719,-7.60112 -0.0324,-0.33435 1.15101,-1.11852 2.63154,-1.73912 1.48413,-0.61939 3.8667,-2.11798 5.29913,-3.32549 1.43724,-1.20752 2.83358,-2.19855 3.1102,-2.19855 z m 78.04971,2.84682 6.86865,3.79093 -5.37006,1.76196 z m -14.20759,0.93932 -12.02226,10.35892 -1.29172,-7.96796 z m -91.68239,3.67426 h 9.36788 l -0.25378,3.87032 c -0.14075,2.13359 -0.67231,4.01223 -1.18466,4.18181 -0.51115,0.16957 -2.50402,-1.57435 -4.42958,-3.87152 z m 355.03328,5.9943 4.02185,0.69517 c 2.2118,0.38124 11.2838,2.053 20.15859,3.71636 8.87479,1.66334 18.01776,3.36877 20.31975,3.78611 6.92516,1.26405 9.09127,1.96882 12.36023,3.98939 1.66814,1.03311 2.82876,1.93515 3.72596,3.00194 0.89244,1.06683 1.51783,2.28756 2.11435,3.96051 0.26221,0.73248 0.48834,1.40477 0.48834,1.48895 0.009,0.089 0.27299,1.13659 0.59651,2.32605 0.63386,2.34889 1.99651,12.99045 2.95989,23.15694 0.18761,1.98687 0.4137,4.29847 0.50271,5.14396 0.089,0.84552 0.3524,3.42532 0.58213,5.7273 0.23572,2.302 0.46063,4.50052 0.50272,4.88541 0.0421,0.38605 0.0469,1.1089 0.005,1.60682 0.30066,2.2178 0.44621,3.39164 0.23092,4.40192 -0.21167,1.00544 -0.78057,1.85096 -1.90748,3.4157 -0.13713,0.18397 -1.46131,2.08186 -2.94184,4.22388 -1.47932,2.13723 -4.42474,6.35152 -6.53913,9.35348 -2.11913,3.00674 -5.59137,7.99678 -7.71414,11.08293 -5.00325,7.27761 -7.5879,10.25549 -11.31748,13.06021 -2.38257,1.79565 -6.06528,2.37774 -10.80153,1.70543 -2.70128,-0.38006 -12.63322,-3.49987 -36.32537,-11.41609 -5.65634,-1.89306 -11.41129,-3.815 -12.78837,-4.27082 l -2.49925,-0.83106 -1.89306,-3.2413 c -2.29718,-3.93769 -3.16673,-5.43624 -3.4578,-5.9522 -0.20686,-0.38127 -15.76628,-27.18359 -17.73993,-30.57044 -0.52677,-0.89841 -1.10409,-1.90267 -1.28209,-2.22741 -0.1792,-0.32471 -0.76131,-1.32057 -1.2929,-2.21297 -0.53041,-0.88761 -1.32898,-2.26471 -1.78002,-3.05369 -1.45647,-2.575 -3.08733,-3.60331 -4.74468,-3.01157 -0.43297,0.15996 -1.21232,0.2213 -1.73911,0.15026 -5.12953,-0.70476 -6.47418,-1.34342 -6.91557,-3.28819 l -0.18281,-0.80341 -1.39033,-0.37644 c -0.7613,-0.21048 -2.67363,-0.71322 -4.24796,-1.11732 -1.57316,-0.40892 -3.58407,-0.9309 -4.47647,-1.15582 -0.88881,-0.2309 -2.24666,-0.58328 -3.01641,-0.78055 -0.34276,-0.0842 -2.04817,-0.52075 -3.54679,-0.90682 0.14075,-0.23936 0.28144,-0.48351 0.41734,-0.72284 0.24415,-0.47026 0.4847,-0.94411 0.72404,-1.41439 0.22009,-0.43657 0.44621,-0.86954 0.67113,-1.30613 0.22128,-0.43178 0.44739,-0.85992 0.65305,-1.29651 0.13713,-0.30548 0.26338,-0.61579 0.4474,-0.90203 0.18764,-0.32833 0.3993,-0.63865 0.59174,-0.96819 0.2201,-0.33796 0.4414,-0.67592 0.63382,-1.03314 0.24417,-0.40408 0.4835,-0.80821 0.63384,-1.25922 0.0757,-0.26821 0.26819,-0.49312 0.37162,-0.75169 0.089,-0.18281 0.17801,-0.36202 0.2634,-0.54002 0.54002,0.14075 0.83587,0.21529 1.56835,0.41735 1.34943,0.37163 2.65077,0.71922 2.89491,0.77092 0.24415,0.0566 1.1642,0.29107 2.05782,0.52197 0.88759,0.22972 1.8125,0.46064 2.05302,0.51596 0.23935,0.0564 1.56352,0.38127 2.94062,0.71443 2.07709,0.50273 2.56057,0.54482 2.8372,0.25858 1.41439,-1.46613 2.37292,-1.43724 6.28656,0.19725 2.64473,1.10407 4.03508,1.4709 4.94192,1.30132 0.46545,-0.089 12.06075,-6.89152 17.22397,-10.10515 2.36692,-1.48053 23.81842,-14.24485 30.17112,-17.96123 z m -188.47751,33.39918 h 0.005 c 0.99584,0.0373 1.95438,0.18761 2.74819,0.48829 1.51301,1.13657 1.73791,2.05302 2.36812,3.21363 2.23586,4.12891 1.31576,9.82372 0.40412,10.60308 -0.14075,0.24414 -0.30547,0.39449 -0.63022,0.58212 -0.0698,0.0759 -0.61457,0.10831 -0.77454,0.005 -1.62126,-0.29104 -7.39063,-5.71766 -10.67883,-12.81605 -0.12265,-0.37043 -0.0421,-0.48831 -0.024,-0.5304 0.25375,-0.78055 3.59006,-1.66333 6.58241,-1.54547 z m 89.06167,44.62164 c -2.12396,20.78883 -8.45623,33.02275 -19.28059,43.85194 -3.78734,3.78732 -9.94156,8.40453 -10.45874,8.40453 -1.00067,0 1.80888,-1.89789 4.95155,-6.49704 4.47767,-6.55837 11.19599,-21.35767 13.10349,-28.8746 2.30199,-9.08646 2.42826,-10.63194 0.57731,-7.19221 -0.73726,1.37109 -2.63995,4.1674 -4.23232,6.22043 -2.20819,2.85161 -2.75301,3.24128 -2.31642,1.65853 2.33926,-8.50437 4.60876,-13.409 5.05496,-19.18321 0.0151,-0.1828 -1.66814,-11.45818 -4.39229,-10.55615 -16.02006,5.30394 -16.3496,9.97885 -38.11141,-0.68556 -5.69841,-2.79147 -10.61268,-5.2017 -10.91817,-5.34723 -0.31029,-0.15041 -0.38484,0.86957 -0.15994,2.26468 0.93571,5.9438 -2.39097,1.09931 -5.60945,-8.17477 -0.85512,-2.46676 -1.39031,-4.65087 -1.18827,-4.85294 0.20205,-0.20687 3.09577,1.84135 6.42728,4.55225 31.13449,16.89445 29.58779,11.51475 44.75878,8.39611 33.83456,-4.99967 25.43003,-30.68829 21.79423,16.01524 z M 305.40262,451.19098 c 0.7986,-0.0373 1.42401,0.0613 1.70064,0.33796 0.92126,0.92127 -1.9965,11.67949 -4.02066,14.8414 -1.62127,2.52329 -2.54734,2.35371 -4.48732,-0.82626 -1.87382,-3.07772 -2.21778,-9.51823 -0.61097,-11.59529 1.02472,-1.3242 5.0177,-2.64958 7.41831,-2.75781 z m -114.61443,11.26575 c 8.10504,7.1934 16.29308,14.31104 23.88095,22.06248 -3.34954,2.78667 -6.68102,5.59137 -10.1292,8.25418 -1.39033,1.01508 -2.83239,1.9508 -4.25158,2.92258 L 178.8886,471.81143 c 3.48544,-3.00199 7.05629,-5.91013 10.83397,-8.5645 0.35721,-0.26341 0.70961,-0.52679 1.06562,-0.79018 z m -17.89028,14.69109 20.64328,23.04025 c -2.30561,1.46973 -4.61721,2.93101 -6.95768,4.3454 L 167.0311,482.70554 c 1.93997,-1.86903 3.88956,-3.72961 5.86681,-5.55772 z m 111.60285,4.77353 -0.23451,7.95833 c -0.21169,7.04787 -0.54485,8.59335 -2.94065,13.45108 -6.8879,13.99592 -19.07853,23.55143 -34.12681,26.74581 -12.73187,2.70609 -24.49555,-0.0987 -37.9322,-9.03955 -5.8584,-3.89917 -7.03344,-5.84396 -1.65853,-2.74818 1.93996,1.11851 6.69427,3.04524 10.57539,4.27562 9.79004,3.1102 22.34871,3.19439 31.58432,0.20687 15.04345,-4.86738 26.05666,-16.7441 32.73649,-35.30188 z m -123.25829,6.3515 18.32203,20.45085 c -2.37653,1.40959 -4.74467,2.83358 -7.1128,4.25156 l -17.07242,-19.06411 c 1.95918,-1.8654 3.91841,-3.74884 5.86319,-5.63829 z m -11.27057,11.62777 15.19861,16.96541 c -7.36658,3.40126 -9.93197,2.29234 -19.6811,7.53497 -15.32489,11.43534 -41.59685,31.02625 -56.959021,42.40026 -13.135985,3.92803 -0.131098,0.0854 -13.10711,3.92322 9.075633,-12.29527 -0.06125,0.0517 9.085258,-12.27604 14.32905,-11.12504 40.741693,-31.28483 54.855483,-42.69612 7.47844,-7.48443 6.78328,-10.53331 10.60788,-15.8517 z"
       style="display:inline;fill:#000000;fill-opacity:1;fill-rule:nonzero;stroke:none;stroke-width:1.20271" />
    <path
       id="path23"
       d="m 192.51767,365.87454 -16.69237,-8.99747 4.98522,-8.71962 z m 15.55584,16.63103 -10.96149,0.52558 0.0987,6.54996 z m -16.79101,-6.57761 -14.05726,-7.10321 -1.41438,13.27671 z"
       style="display:inline;fill:#333333;fill-opacity:1;fill-rule:nonzero;stroke:none;stroke-width:1.20271" />
  </g>
</svg>
